<svg width="84" height="28" viewBox="0 0 84 28" fill="none" xmlns="http://www.w3.org/2000/svg"><path d="M13.96 14.56H7.45v6.28h6.51v-6.28ZM13.96.026H7.45v6.28h6.51V.026ZM6.537 7.4H.027v6.28h6.51V7.4ZM6.537 21.507H.027v6.28h6.51v-6.28ZM21.106 7.4h-6.51v6.28h6.51V7.4ZM21.106 21.587h-6.51v6.28h6.51v-6.28ZM32.328 10.213h-.193c0-1.306-1.147-2.6-2.598-2.6-2.101 0-2.392 2.52-2.392 4.014 0 1.493.29 4.013 2.392 4.013 1.492 0 2.598-1.413 2.598-2.84h.193v2.707h-.193c0-.227-.124-.574-.4-.574-.36 0-.982.894-2.198.894-1.99 0-3.732-1.854-3.732-4.2 0-2.334 1.741-4.2 3.732-4.2 1.202 0 1.727.826 2.156.826.331 0 .442-.213.442-.493h.193v2.453ZM36.102 10.707c1.534 0 2.516 1.213 2.516 2.533 0 1.307-.982 2.534-2.516 2.534-1.52 0-2.501-1.227-2.501-2.534 0-1.306.98-2.533 2.501-2.533Zm1.369 2.093c0-.986-.042-1.906-1.369-1.906s-1.368.906-1.368 1.906v.894c0 .986.041 1.906 1.368 1.906 1.327 0 1.369-.92 1.369-1.906V12.8ZM39.212 15.453h.94v-4.307h-.94v-.186h.94c.566 0 .774 0 .995-.254v1.12h.028c.317-.56.815-1.12 1.7-1.12.76 0 1.52.2 1.617 1.214h.027c.235-.654.83-1.227 1.714-1.214 1.203.014 1.604.667 1.604 1.4v3.347h.94v.187h-2.862v-.187h.94v-3.56c0-.827-.373-1-.83-1-.676 0-1.285.72-1.52 1.52v3.04h.899v.187H42.57v-.187h.94V11.68c0-.574-.29-.787-.774-.787-.704 0-1.244.533-1.59 1.347v3.213h.9v.187h-2.82v-.187h-.014ZM49.855 11.146h-.816v-.173h.816c.373 0 .76-.027.995-.253v1.16h.027c.208-.534.774-1.16 1.631-1.16 1.424 0 2.35 1.413 2.35 2.533 0 1.333-.954 2.533-2.433 2.533-.815 0-1.368-.586-1.548-.96h-.027v3.734h.912v.186h-2.71v-.213h.816v-7.387h-.014Zm.995 2.84c0 .894.705 1.6 1.575 1.6 1.161 0 1.3-.653 1.3-2.346 0-1.56-.18-2.347-1.217-2.347-.981 0-1.658.933-1.658 1.773v1.32ZM60.178 15.026c0 .214.042.494.36.494.276 0 .428-.214.608-.454l.138.094c-.221.373-.54.613-1.05.613-.553 0-.954-.307-1.037-.707h-.028c-.4.507-.94.707-1.713.707-.927 0-1.48-.44-1.48-1.213 0-1.28 1.756-1.6 2.972-1.6h.221v-1.4c0-.534-.525-.667-.967-.667-.346 0-1.147.12-1.147.533 0 .267.387.147.387.667 0 .28-.235.48-.54.48-.331 0-.525-.253-.525-.64 0-.587.636-1.213 1.825-1.213.898 0 1.962.44 1.962 1.32v2.986h.014Zm-1.188-1.893c-.871 0-1.935.027-1.935 1.24 0 .64.11 1.12.857 1.12.884 0 1.271-.64 1.271-.867v-1.493h-.193ZM65.458 15.106c.663 0 1.313.267 1.313 1.307 0 1.547-1.3 2.413-2.737 2.413-1.092 0-2.28-.373-2.28-1.466 0-.64.677-1.12 1.189-1.334V16c-.65 0-.954-.427-.954-1.067 0-.8.4-1.12 1.16-1.12v-.027c-.538-.333-.884-.68-.884-1.293 0-1.013.913-1.773 1.963-1.773.553 0 1.05.16 1.382.493.221-.227.511-.493.912-.493.346 0 .595.186.595.506 0 .267-.222.4-.47.4-.222 0-.387-.186-.387-.346 0-.24.055-.307.138-.374-.235.014-.525.214-.677.427.262.28.456.707.456 1.133 0 .947-1.037 1.68-1.963 1.68-.511 0-.76-.146-.884-.2-.636.014-1.161.174-1.161.72 0 .28.235.467.525.467h2.764v-.027Zm-2.06.894c-.704.146-1.077.546-1.077 1.306 0 .96.857 1.334 1.769 1.334 1.202 0 2.39-.747 2.39-1.88 0-.587-.497-.76-1.105-.76H63.4Zm.816-2.054c.968 0 .968-.72.968-1.533 0-.907 0-1.52-.968-1.52-.967 0-.967.92-.967 1.52 0 .733 0 1.533.967 1.533ZM68.403 11.146h-.926v-.173h.926c.566 0 .774 0 .995-.253v1.16h.028c.304-.547.898-1.16 1.755-1.16 1.271 0 1.617.613 1.617 1.293v3.453h.94v.187h-2.861v-.187h.926v-3.733c0-.627-.318-.827-.705-.827-.995 0-1.507.96-1.714 1.347v3.213h.898v.187h-2.82v-.187h.927v-4.32h.014ZM75.023 11.147h-.94v-.187h.94c.373 0 .76-.027.995-.253v4.746h.954v.187h-2.889v-.187h.94v-4.306Zm.497-3.067c.332 0 .609.267.609.587 0 .32-.277.586-.609.586a.59.59 0 0 1-.594-.586c0-.334.263-.587.594-.587ZM81.865 15.026c0 .214.041.494.36.494.276 0 .428-.214.607-.454l.139.094c-.222.373-.54.613-1.037.613-.553 0-.954-.307-1.037-.707h-.041c-.401.507-.926.707-1.714.707-.926 0-1.479-.44-1.479-1.213 0-1.28 1.755-1.6 2.972-1.6h.22v-1.4c0-.534-.51-.667-.967-.667-.345 0-1.147.12-1.147.533 0 .267.387.147.387.667 0 .28-.235.48-.539.48-.332 0-.525-.253-.525-.64 0-.587.636-1.213 1.824-1.213.899 0 1.963.44 1.963 1.32v2.986h.014Zm-1.203-1.893c-.857 0-1.935.027-1.935 1.24 0 .64.11 1.12.857 1.12.885 0 1.272-.64 1.272-.867v-1.493h-.194ZM29.8 26.84h-.028c-.18.386-.733.973-1.548.973-1.48 0-2.433-1.2-2.433-2.533 0-1.12.94-2.534 2.35-2.534.857 0 1.423.627 1.63 1.16h.028V19.76h-.94v-.187h.94c.373 0 .76-.027.995-.28v8.2h.816v.187H29.8v-.84Zm0-2.147c0-.827-.678-1.76-1.66-1.76-1.036 0-1.216.787-1.216 2.347 0 1.706.139 2.346 1.3 2.346.801 0 1.589-.653 1.575-1.6v-1.333ZM32.881 23.186h-.953V23h.94c.373 0 .76-.027.995-.254v4.747h.94v.187h-2.875v-.187h.94v-4.307h.013Zm.498-3.08c.332 0 .608.267.608.587 0 .32-.276.587-.608.587a.603.603 0 0 1-.608-.587c0-.32.276-.587.608-.587ZM37.595 24.854h.193c0 1.92 1.175 2.813 2.585 2.813 1.133 0 1.949-.694 1.949-1.72 0-1.187-.636-1.547-1.99-1.747-1.853-.28-2.737-.587-2.737-2.493 0-1.294.884-2.24 2.211-2.24 1.216 0 1.686.693 2.073.693.277 0 .304-.28.346-.427h.193v2.4h-.193c-.11-1.306-.843-2.466-2.419-2.466-1.009 0-1.714.64-1.714 1.693 0 1.027.401 1.253 2.364 1.6 1.727.293 2.432.827 2.432 2.307 0 1.493-.843 2.613-2.557 2.613-1.188 0-1.81-.586-2.253-.586-.29 0-.29.28-.29.48h-.193v-2.92ZM47.49 27.053c0 .214.028.494.36.494.276 0 .442-.214.622-.454l.124.094c-.221.373-.525.613-1.036.613-.553 0-.954-.307-1.037-.707h-.014c-.4.52-.94.707-1.714.707-.926 0-1.479-.44-1.479-1.227 0-1.28 1.756-1.6 2.986-1.6h.221v-1.4c0-.533-.525-.653-.968-.653-.345 0-1.147.12-1.147.533 0 .267.387.147.387.667 0 .28-.235.48-.539.48-.331 0-.525-.253-.525-.64 0-.587.636-1.227 1.825-1.227.898 0 1.962.44 1.962 1.32v3h-.028Zm-1.188-1.88c-.857 0-1.935.027-1.935 1.24 0 .64.11 1.12.857 1.12.884 0 1.271-.64 1.271-.866v-1.494h-.193ZM49.674 23.187h-.94V23h.94c.567 0 .774 0 .995-.253v1.16h.028c.304-.547.898-1.16 1.755-1.16 1.258 0 1.617.613 1.617 1.293v3.454h.94v.186h-2.86v-.186h.925V23.76c0-.626-.318-.826-.69-.826-.996 0-1.507.96-1.715 1.346v3.214h.899v.186h-2.82v-.186h.94v-4.307h-.014ZM58.92 19.827h-1.174v-.174h3.372c1.756 0 3.124.574 3.124 2.227 0 1.613-1.576 2.227-3 2.227-.4 0-.87-.08-1.105-.2v3.586h1.203v.187h-3.58v-.187h1.175v-7.666h-.014Zm1.203 3.84c.18.106.526.24.913.24.774 0 1.92-.4 1.92-1.934 0-1.493-.704-2.146-2.114-2.146h-.719v3.84ZM68.14 27.053c0 .214.042.494.36.494.276 0 .428-.214.608-.454l.124.094c-.221.373-.539.613-1.037.613-.552 0-.953-.307-1.036-.707h-.028c-.4.52-.94.707-1.714.707-.926 0-1.479-.44-1.479-1.227 0-1.28 1.756-1.6 2.986-1.6h.221v-1.4c0-.533-.525-.653-.968-.653-.345 0-1.147.12-1.147.533 0 .267.387.147.387.667 0 .28-.235.48-.552.48-.332 0-.526-.253-.526-.64 0-.587.636-1.227 1.825-1.227.898 0 1.962.44 1.962 1.32v3h.014Zm-1.202-1.88c-.857 0-1.935.027-1.935 1.24 0 .64.11 1.12.87 1.12.885 0 1.272-.64 1.272-.866v-1.494h-.207ZM71.941 22.747c1.52 0 2.502 1.227 2.502 2.533 0 1.32-.981 2.534-2.502 2.534-1.52 0-2.502-1.227-2.502-2.534 0-1.306.982-2.533 2.502-2.533Zm1.368 2.093c0-1-.041-1.906-1.368-1.906-1.327 0-1.368.906-1.368 1.906v.894c0 .986.041 1.906 1.368 1.906 1.327 0 1.368-.92 1.368-1.906v-.894ZM75.672 19.76h-.953v-.187h.953c.374 0 .76-.027.996-.28v8.2h.94v.187h-2.89v-.187h.954V19.76ZM80.413 22.747c1.52 0 2.502 1.227 2.502 2.533 0 1.32-.982 2.534-2.502 2.534-1.534 0-2.502-1.227-2.502-2.534-.014-1.306.968-2.533 2.502-2.533Zm1.368 2.093c0-1-.041-1.906-1.368-1.906-1.327 0-1.368.906-1.368 1.906v.894c0 .986.041 1.906 1.368 1.906 1.327 0 1.368-.92 1.368-1.906v-.894Z" fill="#fff" fill-opacity=".65"/></svg>