<svg width="32" height="33" viewBox="0 0 32 33" fill="none" xmlns="http://www.w3.org/2000/svg"><mask id="a" style="mask-type:alpha" maskUnits="userSpaceOnUse" x="0" y="0" width="32" height="33"><path fill="#D9D9D9" d="M0 .979h32v32H0z"/></mask><g mask="url(#a)"><path d="M8 19.645h10.667v-2.667H8v2.667Zm0-4h16v-2.667H8v2.667Zm0-4h16V8.978H8v2.667ZM2.667 30.312v-24c0-.734.261-1.362.784-1.884a2.567 2.567 0 0 1 1.882-.783h21.334c.733 0 1.361.26 1.884.783.521.522.782 1.15.782 1.884v16c0 .733-.26 1.361-.782 1.884a2.57 2.57 0 0 1-1.884.782H8l-5.333 5.334Zm2.666-6.434L6.9 22.312h19.767v-16H5.333v17.566Z" fill="#E56D30"/></g></svg>