<svg width="26" height="21" viewBox="0 0 26 21" fill="none" xmlns="http://www.w3.org/2000/svg"><mask id="a" style="mask-type:alpha" maskUnits="userSpaceOnUse" x="0" y="0" width="26" height="21"><path d="M.724.979h24.48v20H.724v-20Z" fill="#fff"/></mask><g mask="url(#a)"><path fill-rule="evenodd" clip-rule="evenodd" d="M.724.979v20h24.48v-20H.724Z" fill="#2E42A5"/><mask id="b" style="mask-type:alpha" maskUnits="userSpaceOnUse" x="0" y="0" width="26" height="21"><path fill-rule="evenodd" clip-rule="evenodd" d="M.724.979v20h24.48v-20H.724Z" fill="#fff"/></mask><g mask="url(#b)"><mask id="c" style="mask-type:alpha" maskUnits="userSpaceOnUse" x="0" y="0" width="26" height="21"><path d="M.724.979h24.48v20H.724v-20Z" fill="#fff"/></mask><g mask="url(#c)"><path d="m-2.002 19.55 5.387 2.481L25.327 3.677l2.841-3.688-5.76-.83-8.95 7.91-7.203 5.329-8.257 7.151Z" fill="#fff"/><path d="m-1.263 21.289 2.744 1.44L27.15-.354h-3.853L-1.264 21.29Z" fill="#F50100"/><path d="m27.93 19.55-5.387 2.481L.602 3.677-2.24-.011l5.761-.83 8.95 7.91 7.203 5.329 8.256 7.151Z" fill="#fff"/><path d="m27.747 20.798-2.745 1.44-10.93-9.883-3.24-1.104L-2.513 0H1.34l13.338 10.983 3.543 1.324 9.526 8.49Z" fill="#F50100"/><path fill-rule="evenodd" clip-rule="evenodd" d="M15.858-.688h-5.78v8.333H-.782v6.667h10.86v8.333h5.78v-8.333h10.901V7.645H15.858V-.688Z" fill="#F50100"/><mask id="d" style="mask-type:alpha" maskUnits="userSpaceOnUse" x="-1" y="-1" width="28" height="24"><path fill-rule="evenodd" clip-rule="evenodd" d="M15.846-.689h-5.78v8.333H-.794v6.667h10.86v8.333h5.78v-8.333h10.901V7.644H15.846V-.689Z" fill="#fff"/></mask><g mask="url(#d)"><path d="M10.065-.689v-1.666h-1.53V-.69h1.53Zm5.78 0h1.53v-1.666h-1.53V-.69Zm-5.78 8.334V9.31h1.53V7.645h-1.53Zm-10.859 0V5.978h-1.53v1.667h1.53Zm0 6.666h-1.53v1.667h1.53V14.31Zm10.86 0h1.53v-1.666h-1.53v1.666Zm0 8.334h-1.53v1.666h1.53v-1.666Zm5.78 0v1.666h1.53v-1.666h-1.53Zm0-8.334v-1.666h-1.53v1.666h1.53Zm10.9 0v1.667h1.53V14.31h-1.53Zm0-6.666h1.53V5.978h-1.53v1.667Zm-10.9 0h-1.53V9.31h1.53V7.645ZM10.066.978h5.78v-3.333h-5.78V.978Zm1.53 6.667V-.69h-3.06v8.334h3.06ZM-.795 9.31h10.86V5.978H-.795V9.31Zm1.53 5V7.645h-3.06v6.666h3.06Zm9.33-1.666H-.795v3.333h10.86v-3.333Zm1.53 10V14.31h-3.06v8.334h3.06Zm4.25-1.667h-5.78v3.333h5.78v-3.333Zm-1.53-6.667v8.334h3.06V14.31h-3.06Zm12.43-1.666h-10.9v3.333h10.9v-3.333Zm-1.53-5v6.666h3.06V7.645h-3.06Zm-9.37 1.666h10.9V5.978h-10.9V9.31Zm-1.53-10v8.334h3.06V-.69h-3.06Z" fill="#fff"/></g></g></g></g></svg>