<svg width="24" height="25" viewBox="0 0 24 25" fill="none" xmlns="http://www.w3.org/2000/svg"><path opacity=".1" fill-rule="evenodd" clip-rule="evenodd" d="M0 12.979c0-6.628 5.373-12 12-12s12 5.372 12 12c0 6.627-5.373 12-12 12s-12-5.373-12-12Z" fill="#fff"/><path fill-rule="evenodd" clip-rule="evenodd" d="M12 6.579c-1.738 0-1.956.007-2.638.038-.682.031-1.147.14-1.554.298-.42.163-.778.382-1.133.738a3.142 3.142 0 0 0-.739 1.133c-.159.407-.267.873-.297 1.554-.03.682-.039.9-.039 2.639 0 1.738.008 1.955.039 2.638.031.681.139 1.146.297 1.553.164.421.382.778.738 1.134.356.356.713.575 1.134.739.407.158.872.266 1.553.297.683.031.9.039 2.639.039 1.738 0 1.956-.008 2.638-.039.682-.031 1.147-.139 1.554-.297a3.13 3.13 0 0 0 1.133-.739c.356-.356.575-.713.74-1.133.156-.408.264-.873.296-1.554.031-.683.04-.9.04-2.638s-.009-1.957-.04-2.64c-.032-.68-.14-1.146-.297-1.553a3.141 3.141 0 0 0-.739-1.133 3.128 3.128 0 0 0-1.133-.738c-.408-.159-.873-.267-1.555-.298-.682-.03-.9-.038-2.638-.038H12Zm-.573 1.153H12c1.709 0 1.911.006 2.586.037.624.028.963.133 1.188.22.299.116.512.255.736.479.224.224.362.437.479.736.087.225.192.564.22 1.188.03.675.037.877.037 2.585s-.006 1.91-.037 2.586c-.029.624-.133.962-.22 1.188a1.98 1.98 0 0 1-.48.735 1.98 1.98 0 0 1-.735.478c-.225.088-.564.193-1.188.221-.675.03-.877.037-2.586.037-1.71 0-1.912-.006-2.586-.037-.624-.029-.963-.133-1.189-.22a1.982 1.982 0 0 1-.736-.48 1.984 1.984 0 0 1-.479-.735c-.087-.225-.192-.564-.22-1.188-.03-.675-.037-.877-.037-2.586 0-1.71.006-1.911.037-2.586.028-.624.133-.962.22-1.188.116-.299.255-.512.48-.736.223-.224.436-.363.735-.479.226-.088.564-.192 1.189-.22.59-.027.819-.035 2.012-.037v.002Zm3.99 1.063a.768.768 0 1 0 0 1.535.768.768 0 0 0 0-1.535Zm-3.416.897a3.287 3.287 0 1 0 0 6.574 3.287 3.287 0 0 0 0-6.574Zm0 1.153a2.133 2.133 0 1 1 0 4.267 2.133 2.133 0 0 1 0-4.267Z" fill="#fff"/></svg>