<svg width="32" height="32" viewBox="0 0 32 32" fill="none" xmlns="http://www.w3.org/2000/svg"><path d="M12 13.333H2.667A1.334 1.334 0 0 1 1.333 12V2.666a1.333 1.333 0 0 1 1.334-1.333H12a1.333 1.333 0 0 1 1.333 1.333V12A1.334 1.334 0 0 1 12 13.333ZM12 30.666H2.667a1.334 1.334 0 0 1-1.334-1.333v-9.334a1.333 1.333 0 0 1 1.334-1.333H12a1.334 1.334 0 0 1 1.333 1.333v9.334A1.334 1.334 0 0 1 12 30.666ZM17.333 2.666h13.334v2.667H17.333V2.666ZM30.667 20H17.333v2.667h13.334V20ZM30.667 26.666H17.333v2.667h13.334v-2.667ZM30.667 9.333H17.333V12h13.334V9.333Z" fill="#64C973"/></svg>