<svg width="32" height="32" viewBox="0 0 32 32" fill="none" xmlns="http://www.w3.org/2000/svg"><path fill-rule="evenodd" clip-rule="evenodd" d="M0 16C0 7.163 7.163 0 16 0s16 7.163 16 16-7.163 16-16 16S0 24.837 0 16Z" fill="#6734EA"/><path d="M11.546 9.882C11.522 8.814 10.758 8 9.518 8s-2.051.814-2.051 1.882c0 1.046.787 1.883 2.004 1.883h.023c1.264 0 2.052-.837 2.052-1.883ZM11.307 13.252H7.681v10.894h3.626V13.252ZM20.209 12.996c2.386 0 4.175 1.557 4.175 4.904v6.246h-3.626v-5.828c0-1.464-.525-2.463-1.838-2.463-1.001 0-1.598.673-1.86 1.324-.096.233-.12.558-.12.883v6.085h-3.626s.048-9.872 0-10.895h3.627v1.543c.48-.742 1.343-1.799 3.268-1.799Z" fill="#fff"/></svg>