<svg width="24" height="25" viewBox="0 0 24 25" fill="none" xmlns="http://www.w3.org/2000/svg"><path opacity=".1" fill-rule="evenodd" clip-rule="evenodd" d="M0 12.979c0-6.628 5.373-12 12-12s12 5.372 12 12c0 6.627-5.373 12-12 12s-12-5.373-12-12Z" fill="#fff"/><path d="M8.66 8.39c-.018-.801-.591-1.411-1.522-1.411-.93 0-1.538.61-1.538 1.41 0 .785.59 1.413 1.503 1.413h.018c.948 0 1.538-.628 1.538-1.412ZM8.48 10.918H5.76v8.17h2.72v-8.17ZM15.157 10.726c1.79 0 3.13 1.168 3.13 3.677v4.685h-2.719v-4.371c0-1.098-.393-1.847-1.378-1.847-.751 0-1.199.505-1.395.993-.072.174-.09.418-.09.662v4.563h-2.72s.036-7.404 0-8.17h2.72v1.157c.361-.556 1.008-1.35 2.452-1.35Z" fill="#fff"/></svg>