<svg width="164" height="32" viewBox="0 0 164 32" fill="none" xmlns="http://www.w3.org/2000/svg"><g clip-path="url(#a)" fill="#fff"><path d="M88.924 7.874a3.624 3.624 0 0 1-1.37-1.348c-.337-.572-.506-1.222-.506-1.95 0-.727.169-1.365.506-1.938a3.624 3.624 0 0 1 1.37-1.347 3.809 3.809 0 0 1 1.897-.487c.69 0 1.328.163 1.902.487a3.572 3.572 0 0 1 1.358 1.347c.335.576.5 1.22.5 1.938 0 .719-.165 1.378-.5 1.95a3.567 3.567 0 0 1-1.364 1.348 3.808 3.808 0 0 1-1.896.487c-.69 0-1.32-.164-1.897-.487Zm3.066-1.137c.337-.202.6-.487.79-.86.189-.375.284-.808.284-1.3 0-.493-.095-.927-.284-1.295a2.037 2.037 0 0 0-.79-.851 2.29 2.29 0 0 0-1.17-.297c-.44 0-.834.098-1.174.297a2.03 2.03 0 0 0-.796.851c-.19.371-.284.802-.284 1.294 0 .493.095.926.284 1.3.19.374.456.662.796.861.34.202.734.303 1.175.303.44 0 .831-.101 1.169-.303ZM98.085 2.606c.334-.181.716-.27 1.142-.27.5 0 .95.125 1.355.37.402.247.722.597.959 1.052.233.454.352.982.352 1.578 0 .597-.119 1.128-.352 1.591-.237.463-.557.82-.959 1.072-.405.252-.855.38-1.355.38a2.367 2.367 0 0 1-1.93-.93v3.627h-1.476V2.431h1.477v.846c.189-.267.452-.493.784-.671h.003Zm2.086 1.816a1.508 1.508 0 0 0-.569-.587 1.522 1.522 0 0 0-1.517.003 1.492 1.492 0 0 0-.569.596 1.895 1.895 0 0 0-.216.92c0 .353.072.66.216.92.145.262.335.46.569.597.236.136.485.205.754.205.27 0 .53-.072.764-.211.236-.14.426-.341.568-.603.142-.26.216-.57.216-.928 0-.36-.071-.656-.216-.915v.003ZM108.5 5.802h-4.267c.036.422.184.754.444.995.261.24.58.359.959.359.547 0 .938-.235 1.169-.71h1.591a2.651 2.651 0 0 1-.97 1.39c-.476.362-1.065.543-1.761.543a3.048 3.048 0 0 1-1.512-.374 2.651 2.651 0 0 1-1.044-1.063c-.249-.457-.373-.985-.373-1.585s.124-1.136.37-1.596c.246-.457.589-.81 1.033-1.057.443-.246.952-.371 1.526-.371.574 0 1.054.119 1.492.36.438.24.781.578 1.021 1.02.242.44.363.947.363 1.517 0 .21-.014.4-.041.57v.002Zm-1.485-.994c-.006-.38-.145-.685-.412-.914a1.454 1.454 0 0 0-.979-.344c-.364 0-.672.11-.923.332-.249.223-.403.532-.459.926h2.773ZM114.687 3.007c.429.439.642 1.056.642 1.843v3.433h-1.476V5.048c0-.466-.116-.822-.349-1.071-.231-.25-.548-.374-.95-.374-.403 0-.728.125-.965.374-.237.25-.352.608-.352 1.071v3.235h-1.477V2.431h1.477v.73c.195-.252.447-.454.755-.597a2.309 2.309 0 0 1 1.006-.216c.695 0 1.257.22 1.686.662l.003-.003ZM121.01.908v7.378h-1.476V.908h1.476ZM127.532 3.007c.429.439.642 1.056.642 1.843v3.433h-1.477V5.048c0-.466-.115-.822-.346-1.071-.231-.25-.547-.374-.95-.374-.402 0-.728.125-.964.374-.237.25-.353.608-.353 1.071v3.235h-1.476V2.431h1.476v.73c.196-.252.447-.454.755-.597a2.312 2.312 0 0 1 1.006-.216c.695 0 1.257.22 1.687.662v-.003ZM130.671 8.123a2.276 2.276 0 0 1-.903-.703 1.78 1.78 0 0 1-.363-.982h1.485a.82.82 0 0 0 .331.56c.193.149.435.223.722.223s.5-.056.66-.17a.516.516 0 0 0 .237-.432c0-.19-.098-.333-.29-.428-.192-.095-.5-.199-.923-.311a7.854 7.854 0 0 1-1.068-.327 1.846 1.846 0 0 1-.717-.516c-.198-.232-.298-.546-.298-.941 0-.324.091-.62.278-.888.186-.267.452-.477.802-.635.349-.154.757-.231 1.228-.231.695 0 1.251.175 1.665.522.415.35.642.82.687 1.41h-1.412a.767.767 0 0 0-.289-.555c-.172-.137-.403-.205-.69-.205-.266 0-.473.05-.615.149a.47.47 0 0 0-.216.412c0 .199.097.347.296.448.195.101.503.205.917.312.42.107.769.214 1.044.326.275.113.512.288.71.523.202.237.305.549.311.935 0 .338-.095.64-.278.908a1.84 1.84 0 0 1-.802.629 3.032 3.032 0 0 1-1.216.228c-.462 0-.905-.086-1.284-.258l-.009-.003ZM137.332 3.648v2.831c0 .196.047.341.142.427.094.09.254.134.479.134h.683v1.246h-.926c-1.242 0-1.864-.605-1.864-1.819v-2.82h-.695V2.432h.695V.982h1.486v1.449h1.307v1.217h-1.307ZM139.95 1.484a.822.822 0 0 1-.257-.617c0-.247.085-.454.257-.618a.895.895 0 0 1 .648-.249c.26 0 .476.083.648.25a.822.822 0 0 1 .257.617.817.817 0 0 1-.257.617.895.895 0 0 1-.648.25.895.895 0 0 1-.648-.25Zm1.376.947v5.855h-1.477V2.431h1.477ZM144.643 3.648v2.831c0 .196.047.341.142.427.095.09.254.134.479.134h.684v1.246h-.926c-1.243 0-1.864-.605-1.864-1.819v-2.82h-.696V2.432h.696V.982h1.485v1.449h1.308v1.217h-1.308ZM152.673 2.43v5.856h-1.485v-.739a1.942 1.942 0 0 1-.743.597 2.274 2.274 0 0 1-.994.217c-.456 0-.861-.098-1.213-.291a2.048 2.048 0 0 1-.829-.855c-.201-.377-.298-.825-.298-1.348V2.431h1.476v3.223c0 .466.115.822.349 1.071.231.25.548.374.947.374.4 0 .728-.124.959-.374.231-.25.349-.608.349-1.071V2.43h1.485-.003ZM155.993 3.648v2.831c0 .196.048.341.142.427.095.09.255.134.48.134h.686v1.246h-.926c-1.243 0-1.864-.605-1.864-1.819v-2.82h-.695V2.432h.695V.982h1.485v1.449h1.308v1.217h-1.311ZM163.896 5.802h-4.266c.035.422.183.754.444.995.26.24.58.359.958.359.548 0 .938-.235 1.169-.71h1.592a2.653 2.653 0 0 1-.971 1.39c-.479.362-1.065.543-1.76.543a3.048 3.048 0 0 1-1.512-.374 2.654 2.654 0 0 1-1.045-1.063c-.248-.457-.372-.985-.372-1.585s.124-1.136.369-1.596c.246-.457.589-.81 1.033-1.057.444-.246.953-.371 1.527-.371s1.05.119 1.491.36c.438.24.781.578 1.021 1.02.243.44.364.947.364 1.517 0 .21-.015.4-.042.57v.002Zm-1.485-.994c-.006-.38-.145-.685-.411-.914a1.457 1.457 0 0 0-.98-.344c-.366 0-.671.11-.923.332-.248.223-.402.532-.458.926h2.772ZM88.48 21.185a2.705 2.705 0 0 1-1.06-1.063c-.257-.457-.384-.985-.384-1.585s.133-1.127.394-1.584a2.756 2.756 0 0 1 1.08-1.063c.455-.25.964-.374 1.526-.374.563 0 1.072.125 1.527.374.456.25.817.605 1.08 1.063.264.457.397.985.397 1.584 0 .6-.136 1.128-.406 1.585-.269.457-.636.814-1.094 1.063a3.19 3.19 0 0 1-1.545.374 3.054 3.054 0 0 1-1.518-.374h.003Zm2.27-1.11c.233-.13.423-.327.565-.588.139-.261.21-.579.21-.95 0-.557-.145-.985-.438-1.285a1.43 1.43 0 0 0-1.068-.448c-.42 0-.776.149-1.06.448-.284.3-.426.728-.426 1.285 0 .558.14.986.418 1.286.278.3.627.448 1.047.448.266 0 .518-.066.754-.196h-.002ZM96.951 16.825h-1.02v4.639h-1.498v-4.639h-.663v-1.217h.663v-.296c0-.719.204-1.247.613-1.585.408-.339 1.024-.496 1.843-.475v1.246c-.358-.006-.606.054-.748.181-.142.128-.21.357-.21.686v.243h1.02v1.217ZM105.719 14.086v1.193h-1.959v6.182h-1.477V15.28h-1.959v-1.193h5.395ZM112.326 18.98h-4.267c.036.421.184.754.444.994s.58.36.959.36c.547 0 .938-.235 1.168-.71h1.592a2.652 2.652 0 0 1-.97 1.389c-.479.362-1.065.543-1.761.543a3.048 3.048 0 0 1-1.512-.374 2.65 2.65 0 0 1-1.044-1.063c-.249-.457-.373-.985-.373-1.584 0-.6.124-1.137.37-1.597.245-.457.589-.81 1.033-1.057.443-.246.952-.37 1.526-.37.574 0 1.051.118 1.492.358.438.24.781.58 1.02 1.021.243.44.364.947.364 1.517 0 .21-.014.4-.041.57v.003Zm-1.485-.995c-.006-.38-.145-.685-.412-.914a1.454 1.454 0 0 0-.979-.344c-.367 0-.672.11-.923.332-.249.223-.403.532-.459.926h2.773ZM113.58 16.947a2.639 2.639 0 0 1 1.021-1.057c.435-.25.935-.374 1.497-.374.722 0 1.323.181 1.796.543.474.362.793.873.953 1.529h-1.592a1.166 1.166 0 0 0-.426-.597c-.201-.145-.447-.216-.742-.216-.421 0-.755.154-1.001.46-.245.305-.369.742-.369 1.305 0 .564.124.989.369 1.294.246.306.58.46 1.001.46.597 0 .988-.267 1.168-.804h1.592c-.163.635-.482 1.137-.959 1.51-.476.375-1.074.562-1.79.562-.562 0-1.062-.125-1.497-.374a2.638 2.638 0 0 1-1.021-1.057c-.245-.454-.37-.985-.37-1.59 0-.606.125-1.137.37-1.591v-.003ZM124.549 15.816c.343.193.613.478.805.855.192.377.29.83.29 1.36v3.433h-1.477v-3.235c0-.466-.115-.822-.349-1.071-.231-.25-.547-.374-.947-.374-.399 0-.728.124-.964.374-.237.249-.352.608-.352 1.071v3.235h-1.477v-7.82h1.477v2.694c.189-.252.443-.454.757-.596a2.497 2.497 0 0 1 1.053-.217c.444 0 .835.098 1.181.291h.003ZM132.115 16.184c.429.44.642 1.056.642 1.843v3.434h-1.476v-3.235c0-.466-.116-.822-.347-1.072-.23-.249-.547-.374-.949-.374-.403 0-.728.125-.965.374-.237.25-.352.609-.352 1.072v3.235h-1.477v-5.856h1.477v.73a2.01 2.01 0 0 1 .754-.596 2.312 2.312 0 0 1 1.006-.217c.696 0 1.258.22 1.687.662ZM135.382 21.185a2.709 2.709 0 0 1-1.06-1.063c-.257-.457-.384-.985-.384-1.585s.133-1.127.393-1.584a2.765 2.765 0 0 1 1.08-1.063 3.13 3.13 0 0 1 1.527-.374 3.13 3.13 0 0 1 1.527.374c.456.25.817.605 1.08 1.063.263.457.396.985.396 1.584 0 .6-.136 1.128-.405 1.585a2.81 2.81 0 0 1-1.095 1.063c-.461.25-.973.374-1.544.374a3.052 3.052 0 0 1-1.518-.374h.003Zm2.269-1.11a1.44 1.44 0 0 0 .565-.588c.139-.261.21-.579.21-.95 0-.557-.145-.985-.438-1.285a1.429 1.429 0 0 0-1.068-.448c-.42 0-.775.149-1.059.448-.284.3-.426.728-.426 1.285 0 .558.139.986.417 1.286.278.3.627.448 1.048.448.266 0 .517-.066.754-.196h-.003ZM142.652 13.644v7.82h-1.477v-7.82h1.477ZM145.329 21.185a2.713 2.713 0 0 1-1.059-1.063c-.257-.457-.385-.985-.385-1.585s.134-1.127.394-1.584a2.752 2.752 0 0 1 1.08-1.063 3.13 3.13 0 0 1 1.527-.374 3.13 3.13 0 0 1 1.527.374c.455.25.816.605 1.08 1.063.263.457.396.985.396 1.584 0 .6-.136 1.128-.405 1.585-.27.457-.636.814-1.095 1.063-.462.25-.974.374-1.545.374a3.055 3.055 0 0 1-1.518-.374h.003Zm2.27-1.11a1.44 1.44 0 0 0 .565-.588c.139-.261.21-.579.21-.95 0-.557-.145-.985-.438-1.285a1.43 1.43 0 0 0-1.068-.448c-.42 0-.775.149-1.059.448-.284.3-.426.728-.426 1.285 0 .558.139.986.417 1.286.278.3.627.448 1.047.448.267 0 .518-.066.755-.196h-.003ZM154.558 15.771c.332.173.589.398.781.671v-.834h1.486v5.897c0 .544-.11 1.027-.326 1.455a2.427 2.427 0 0 1-.979 1.015c-.435.249-.962.374-1.58.374-.829 0-1.509-.193-2.039-.582a2.156 2.156 0 0 1-.899-1.585h1.464c.077.267.243.48.5.638.258.157.569.238.933.238.429 0 .775-.128 1.044-.386.266-.258.399-.647.399-1.17v-.908a2.213 2.213 0 0 1-.784.686 2.33 2.33 0 0 1-1.142.276c-.491 0-.941-.128-1.349-.38a2.654 2.654 0 0 1-.965-1.071c-.236-.46-.352-.992-.352-1.591 0-.6.119-1.116.352-1.576.237-.457.557-.81.959-1.057.402-.246.855-.37 1.355-.37.435 0 .82.085 1.148.258l-.006.002Zm.568 1.84a1.473 1.473 0 0 0-.568-.59 1.522 1.522 0 0 0-.769-.205 1.48 1.48 0 0 0-.757.202c-.231.133-.421.33-.566.588-.145.258-.216.56-.216.914 0 .353.071.662.216.926.145.264.335.466.569.608.236.143.485.21.754.21s.53-.067.769-.204c.24-.136.429-.335.568-.59.142-.259.211-.567.211-.926 0-.36-.071-.668-.211-.927v-.006ZM164 15.608l-3.616 8.625h-1.571l1.264-2.917-2.341-5.708h1.654l1.506 4.09 1.527-4.09H164ZM10.844.338C4.864.338 0 5.218 0 11.216s4.864 10.877 10.844 10.877c5.98 0 10.845-4.88 10.845-10.877 0-5.998-4.865-10.878-10.845-10.878Zm0 16.772c-3.24 0-5.876-2.644-5.876-5.894s2.636-5.894 5.876-5.894 5.877 2.644 5.877 5.894-2.637 5.894-5.877 5.894ZM35.548.338c-5.98 0-10.844 4.88-10.844 10.878V32h4.968V20.348a10.748 10.748 0 0 0 5.876 1.742c5.98 0 10.845-4.88 10.845-10.877 0-5.998-4.865-10.875-10.845-10.875Zm0 16.772c-3.24 0-5.876-2.644-5.876-5.894s2.636-5.894 5.876-5.894 5.877 2.644 5.877 5.894-2.637 5.894-5.877 5.894ZM54.394.974h-4.968v20.484h4.968V.974ZM77.754.961H57.33v4.98h7.73v15.517h4.964V5.942h7.729V.962Z"/></g><defs><clipPath id="a"><path fill="#fff" d="M0 0h164v32H0z"/></clipPath></defs></svg>