<svg width="32" height="33" viewBox="0 0 32 33" fill="none" xmlns="http://www.w3.org/2000/svg"><mask id="a" style="mask-type:alpha" maskUnits="userSpaceOnUse" x="0" y="0" width="32" height="33"><path fill="#D9D9D9" d="M0 .979h32v32H0z"/></mask><g mask="url(#a)"><path d="M5.333 27.645c-.733 0-1.36-.26-1.882-.782a2.569 2.569 0 0 1-.784-1.884v-16c0-.734.261-1.361.784-1.883a2.565 2.565 0 0 1 1.882-.784h21.334c.733 0 1.361.261 1.884.784.521.522.782 1.15.782 1.883v16c0 .733-.26 1.361-.782 1.884a2.57 2.57 0 0 1-1.884.782H5.333ZM16 18.312 5.333 11.645V24.98h21.334V11.645L16 18.312Zm0-2.667L26.667 8.98H5.333L16 15.645Zm-10.667-4V8.98v16-13.334Z" fill="#61C0F4"/></g></svg>