<svg width="28" height="21" viewBox="0 0 28 21" fill="none" xmlns="http://www.w3.org/2000/svg"><mask id="a" style="mask-type:alpha" maskUnits="userSpaceOnUse" x="0" y="0" width="28" height="21"><path d="M.35.979h26.668v20H.35v-20Z" fill="#fff"/></mask><g mask="url(#a)"><path fill-rule="evenodd" clip-rule="evenodd" d="M7.016.979h20v20h-20v-20Z" fill="#EF0000"/><path fill-rule="evenodd" clip-rule="evenodd" d="M.35.979h10v20h-10v-20Z" fill="#2F8D00"/><mask id="b" style="mask-type:alpha" maskUnits="userSpaceOnUse" x="3" y="4" width="14" height="14"><path fill-rule="evenodd" clip-rule="evenodd" d="M10.266 17.485c-3.55 0-6.429-2.913-6.429-6.506 0-3.593 2.879-6.506 6.429-6.506 3.55 0 6.429 2.913 6.429 6.506 0 3.593-2.879 6.506-6.429 6.506Z" fill="#fff"/></mask><g mask="url(#b)" fill="#FFE017"><path fill-rule="evenodd" clip-rule="evenodd" d="M9.874 4.312h.833v2.249h-.833V4.312ZM9.874 15.557h.833v2.088h-.833v-2.088Z"/><path d="m3.946 11.315-.233-.598C6.284 9.691 8.225 9.03 9.541 8.73c1.932-.437 4.054-.761 6.368-.971l.057.64c-2.287.208-4.382.527-6.286.959-1.278.289-3.191.942-5.734 1.957Z"/><path d="m16.3 7.365-.189.614c-1.943-.614-3.526-.877-4.742-.796l-.042-.64c1.306-.088 2.962.187 4.973.822ZM16.975 10.795l-.359.53c-.99-.688-2.21-1.033-3.67-1.033v-.643c1.582 0 2.928.381 4.03 1.146Z"/><path d="m16.435 10.987.165.621c-2.136.579-4.141.907-6.016.984-1.887.078-4.087-.252-6.601-.986l.176-.617c2.453.716 4.587 1.036 6.4.961 1.825-.075 3.784-.396 5.876-.963Z"/><path d="m16.191 14.008-1.003 1.03c-1.908-1.906-3.587-3.269-5.027-4.088-1.466-.832-3.376-1.678-5.73-2.533l.483-1.36c2.423.88 4.404 1.756 5.946 2.633 1.567.89 3.34 2.33 5.331 4.318ZM4.895 14.591l-.38-.515a7.733 7.733 0 0 1 .99-.602c.708-.359 1.42-.583 2.097-.604l.1-.001v.642c-.027 0-.054 0-.08.002-.572.017-1.2.215-1.833.536a7.06 7.06 0 0 0-.894.542Z"/><path d="m5.194 14.814.16-.622c2.117.557 3.748.835 4.887.835 1.135 0 2.824-.327 5.056-.985l.177.617c-2.284.673-4.025 1.01-5.233 1.01-1.203 0-2.883-.285-5.047-.855ZM4.368 9.057 5.374 8.03l1.473 1.478-1.006 1.027-1.473-1.478Z"/><path d="m12.712 14.185.749-1.232 2.336 1.454-.748 1.232-2.337-1.454Z"/></g><path fill-rule="evenodd" clip-rule="evenodd" d="M3.848 10.979c0 3.593 2.878 6.506 6.429 6.506 3.55 0 6.428-2.913 6.428-6.506 0-3.593-2.878-6.506-6.428-6.506s-6.43 2.913-6.43 6.506Zm12.063.08c0 3.105-2.487 5.623-5.555 5.623-3.068 0-5.556-2.518-5.556-5.623 0-3.105 2.488-5.622 5.556-5.622s5.555 2.517 5.555 5.622Z" fill="#F9E813"/><path d="M6.733 6.966v5.217c.343 2.065 1.5 3.098 3.471 3.098 1.97 0 3.128-1.033 3.471-3.098V6.966H6.733Z" fill="#fff"/><path d="M6.259 6.484h7.894v5.74l-.006.04c-.382 2.293-1.734 3.5-3.941 3.5-2.208 0-3.56-1.207-3.94-3.5l-.007-.04v-5.74Z" fill="#C51918"/><path d="M8.065 8.237h4.283v3.701s-.318 1.911-2.142 1.911c-1.823 0-2.141-1.91-2.141-1.91V8.236Z" fill="#F7FCFF"/><path fill-rule="evenodd" clip-rule="evenodd" d="M7.024 6.882h.602v.401h-.602v-.401Z" fill="#F9E813"/><path fill-rule="evenodd" clip-rule="evenodd" d="M6.706 7.042h1.11v.201h-1.11v-.2Z" fill="#060101"/><path fill-rule="evenodd" clip-rule="evenodd" d="M6.706 7.203h.602v.2h-.602v-.2ZM7.342 7.203h.602v.2h-.602v-.2ZM6.706 7.685h.401v.602h-.401v-.602ZM7.504 7.685h.401v.602h-.401v-.602ZM7.184 7.685h.2v.602h-.2v-.602Z" fill="#F9E813"/><path fill-rule="evenodd" clip-rule="evenodd" d="M6.706 7.524h1.11v.201h-1.11v-.2ZM6.706 8.006h1.11v.2h-1.11v-.2Z" fill="#060101"/><path fill-rule="evenodd" clip-rule="evenodd" d="M6.866 7.364h.2v.201h-.2v-.2ZM7.504 7.364h.2v.201h-.2v-.2ZM7.184 7.203h.2v.402h-.2v-.402ZM10.04 6.882h.603v.401h-.602v-.401Z" fill="#F9E813"/><path fill-rule="evenodd" clip-rule="evenodd" d="M9.723 7.042h1.11v.201h-1.11v-.2Z" fill="#060101"/><path fill-rule="evenodd" clip-rule="evenodd" d="M9.723 7.203h.602v.2h-.602v-.2ZM10.359 7.203h.602v.2h-.602v-.2ZM9.723 7.685h.401v.602h-.401v-.602ZM10.515 7.685h.402v.602h-.402v-.602ZM10.203 7.685h.2v.602h-.2v-.602Z" fill="#F9E813"/><path fill-rule="evenodd" clip-rule="evenodd" d="M9.723 7.524h1.11v.201h-1.11v-.2ZM9.723 8.006h1.11v.2h-1.11v-.2Z" fill="#060101"/><path fill-rule="evenodd" clip-rule="evenodd" d="M9.885 7.364h.2v.201h-.2v-.2ZM10.515 7.364h.201v.201h-.2v-.2ZM10.203 7.203h.2v.402h-.2v-.402ZM12.896 6.882h.602v.401h-.602v-.401Z" fill="#F9E813"/><path fill-rule="evenodd" clip-rule="evenodd" d="M12.582 7.042h1.11v.201h-1.11v-.2Z" fill="#060101"/><path fill-rule="evenodd" clip-rule="evenodd" d="M12.582 7.203h.602v.2h-.602v-.2ZM13.21 7.203h.603v.2h-.602v-.2ZM12.582 7.685h.401v.602h-.401v-.602ZM13.37 7.685h.402v.602h-.402v-.602ZM13.052 7.685h.201v.602h-.2v-.602Z" fill="#F9E813"/><path fill-rule="evenodd" clip-rule="evenodd" d="M12.582 7.524h1.11v.201h-1.11v-.2ZM12.582 8.006h1.11v.2h-1.11v-.2Z" fill="#060101"/><path fill-rule="evenodd" clip-rule="evenodd" d="M12.74 7.364h.2v.201h-.2v-.2ZM13.37 7.364h.201v.201h-.2v-.2ZM13.052 7.203h.201v.402h-.2v-.402ZM12.896 9.773h.602v.402h-.602v-.402Z" fill="#F9E813"/><path fill-rule="evenodd" clip-rule="evenodd" d="M12.582 9.934h1.11v.2h-1.11v-.2Z" fill="#060101"/><path fill-rule="evenodd" clip-rule="evenodd" d="M12.582 10.095h.602v.2h-.602v-.2ZM13.21 10.095h.603v.2h-.602v-.2ZM12.582 10.577h.401v.603h-.401v-.603ZM13.37 10.577h.402v.603h-.402v-.603ZM13.052 10.577h.201v.603h-.2v-.603Z" fill="#F9E813"/><path fill-rule="evenodd" clip-rule="evenodd" d="M12.582 10.416h1.11v.2h-1.11v-.2ZM12.582 10.898h1.11v.2h-1.11v-.2Z" fill="#060101"/><path fill-rule="evenodd" clip-rule="evenodd" d="M12.74 10.255h.2v.201h-.2v-.2ZM13.37 10.255h.201v.201h-.2v-.2ZM13.052 10.095h.201v.401h-.2v-.401ZM7.024 9.773h.602v.402h-.602v-.402Z" fill="#F9E813"/><path fill-rule="evenodd" clip-rule="evenodd" d="M6.706 9.934h1.11v.2h-1.11v-.2Z" fill="#060101"/><path fill-rule="evenodd" clip-rule="evenodd" d="M6.706 10.095h.602v.2h-.602v-.2ZM7.342 10.095h.602v.2h-.602v-.2ZM6.706 10.577h.401v.603h-.401v-.603ZM7.504 10.577h.401v.603h-.401v-.603ZM7.184 10.577h.2v.603h-.2v-.603Z" fill="#F9E813"/><path fill-rule="evenodd" clip-rule="evenodd" d="M6.706 10.416h1.11v.2h-1.11v-.2ZM6.706 10.898h1.11v.2h-1.11v-.2Z" fill="#060101"/><path fill-rule="evenodd" clip-rule="evenodd" d="M6.866 10.255h.2v.201h-.2v-.2ZM7.504 10.255h.2v.201h-.2v-.2ZM7.184 10.095h.2v.401h-.2v-.401ZM7.409 13.398l.387-.461.308.258-.388.461-.307-.258Z" fill="#F9E813"/><path fill-rule="evenodd" clip-rule="evenodd" d="m7.329 13.745.714-.851.154.129-.714.85-.154-.128Z" fill="#060101"/><path fill-rule="evenodd" clip-rule="evenodd" d="m7.452 13.848.387-.462.154.13-.388.46-.153-.128ZM7.859 13.361l.387-.461.154.129-.387.461-.154-.129ZM7.818 14.158l.258-.308.462.387-.259.308-.461-.387ZM8.328 13.55l.258-.308.461.387-.258.308-.461-.388ZM8.13 13.793l.13-.154.461.387-.129.154-.462-.387Z" fill="#F9E813"/><path fill-rule="evenodd" clip-rule="evenodd" d="m7.703 14.054.714-.85.154.128-.714.851-.154-.129ZM8.064 14.364l.714-.85.154.128-.715.851-.153-.129Z" fill="#060101"/><path fill-rule="evenodd" clip-rule="evenodd" d="m7.677 13.83.129-.154.154.129-.13.154-.153-.13ZM8.086 13.343l.129-.153.154.129-.13.153-.153-.129ZM7.757 13.483l.129-.154.307.258-.129.154-.307-.258ZM12.84 13.033l.386.462-.307.258-.387-.462.307-.258Z" fill="#F9E813"/><path fill-rule="evenodd" clip-rule="evenodd" d="m12.507 12.894.714.85-.154.13-.714-.851.154-.13Z" fill="#060101"/><path fill-rule="evenodd" clip-rule="evenodd" d="m12.388 12.997.387.461-.154.13-.387-.462.154-.13ZM12.797 13.483l.387.462-.154.129-.387-.462.154-.129ZM12.02 13.307l.258.307-.461.388-.258-.308.461-.387ZM12.53 13.914l.258.308-.462.387-.258-.308.462-.387ZM12.325 13.671l.13.154-.462.387-.13-.153.462-.388Z" fill="#F9E813"/><path fill-rule="evenodd" clip-rule="evenodd" d="m12.144 13.203.714.851-.154.13-.714-.852.154-.129ZM11.772 13.513l.714.851-.154.13-.714-.852.154-.129Z" fill="#060101"/><path fill-rule="evenodd" clip-rule="evenodd" d="m12.367 13.222.13.154-.155.129-.129-.154.154-.13ZM12.778 13.708l.13.154-.154.129-.13-.154.154-.129ZM12.698 13.361l.129.154-.308.258-.129-.154.308-.258Z" fill="#F9E813"/><path fill-rule="evenodd" clip-rule="evenodd" d="M10.823 8.649h-1.1v.801s.081.414.55.414c.468 0 .55-.414.55-.414V8.65Zm-.624.321a.16.16 0 0 1-.159.16.16.16 0 0 1-.158-.16.16.16 0 0 1 .158-.16.16.16 0 0 1 .159.16Zm-.159.803a.16.16 0 0 0 .159-.16.16.16 0 0 0-.159-.16.16.16 0 0 0-.158.16c0 .088.07.16.158.16Zm.635-.16a.16.16 0 0 1-.159.16.16.16 0 0 1-.158-.16.16.16 0 0 1 .158-.16.16.16 0 0 1 .16.16Zm-.397-.16a.16.16 0 0 0 .16-.162.16.16 0 0 0-.16-.16.16.16 0 0 0-.158.16c0 .09.07.161.158.161Zm.397-.483a.16.16 0 0 1-.159.16.16.16 0 0 1-.158-.16.16.16 0 0 1 .158-.16.16.16 0 0 1 .16.16ZM10.823 10.416h-1.1v.801s.081.414.55.414c.468 0 .55-.414.55-.414v-.801Zm-.624.321a.16.16 0 0 1-.159.16.16.16 0 0 1-.158-.16.16.16 0 0 1 .158-.16.16.16 0 0 1 .159.16Zm-.159.803a.16.16 0 0 0 .159-.16.16.16 0 0 0-.159-.16.16.16 0 0 0-.158.16c0 .089.07.16.158.16Zm.635-.16a.16.16 0 0 1-.159.16.16.16 0 0 1-.158-.16.16.16 0 0 1 .158-.16.16.16 0 0 1 .16.16Zm-.397-.16a.16.16 0 0 0 .16-.161.16.16 0 0 0-.16-.161.16.16 0 0 0-.158.16c0 .09.07.161.158.161Zm.397-.483a.16.16 0 0 1-.159.16.16.16 0 0 1-.158-.16.16.16 0 0 1 .158-.16.16.16 0 0 1 .16.16ZM12.25 10.416h-1.1v.801s.081.414.55.414c.468 0 .55-.414.55-.414v-.801Zm-.624.321a.16.16 0 0 1-.159.16.16.16 0 0 1-.159-.16.16.16 0 0 1 .159-.16.16.16 0 0 1 .159.16Zm-.159.803a.16.16 0 0 0 .159-.16.16.16 0 0 0-.159-.16.16.16 0 0 0-.159.16c0 .089.071.16.159.16Zm.635-.16a.16.16 0 0 1-.159.16.16.16 0 0 1-.159-.16.16.16 0 0 1 .16-.16.16.16 0 0 1 .158.16Zm-.397-.16a.16.16 0 0 0 .159-.161.16.16 0 0 0-.159-.161.16.16 0 0 0-.159.16c0 .09.072.161.16.161Zm.397-.483a.16.16 0 0 1-.159.16.16.16 0 0 1-.159-.16.16.16 0 0 1 .16-.16.16.16 0 0 1 .158.16ZM9.389 10.416h-1.1v.801s.081.414.55.414c.468 0 .55-.414.55-.414v-.801Zm-.624.321a.16.16 0 0 1-.159.16.16.16 0 0 1-.159-.16.16.16 0 0 1 .16-.16.16.16 0 0 1 .158.16Zm-.159.803a.16.16 0 0 0 .159-.16.16.16 0 0 0-.159-.16.16.16 0 0 0-.159.16c0 .089.072.16.16.16Zm.635-.16a.16.16 0 0 1-.159.16.16.16 0 0 1-.158-.16.16.16 0 0 1 .158-.16.16.16 0 0 1 .159.16Zm-.397-.16a.16.16 0 0 0 .159-.161.16.16 0 0 0-.159-.161.16.16 0 0 0-.158.16c0 .09.07.161.158.161Zm.397-.483a.16.16 0 0 1-.159.16.16.16 0 0 1-.158-.16.16.16 0 0 1 .158-.16.16.16 0 0 1 .159.16ZM10.823 12.184h-1.1v.8s.081.415.55.415c.468 0 .55-.414.55-.414v-.801Zm-.624.32a.16.16 0 0 1-.159.162.16.16 0 0 1-.158-.161.16.16 0 0 1 .158-.16.16.16 0 0 1 .159.16Zm-.159.804a.16.16 0 0 0 .159-.16.16.16 0 0 0-.159-.161.16.16 0 0 0-.158.16c0 .09.07.161.158.161Zm.635-.16a.16.16 0 0 1-.159.16.16.16 0 0 1-.158-.16.16.16 0 0 1 .158-.161.16.16 0 0 1 .16.16Zm-.397-.161a.16.16 0 0 0 .16-.16.16.16 0 0 0-.16-.162.16.16 0 0 0-.158.161c0 .089.07.16.158.16Zm.397-.482a.16.16 0 0 1-.159.16.16.16 0 0 1-.158-.16.16.16 0 0 1 .158-.16.16.16 0 0 1 .16.16Z" fill="#013399"/></g></svg>