<svg width="25" height="21" viewBox="0 0 25 21" fill="none" xmlns="http://www.w3.org/2000/svg"><mask id="a" style="mask-type:alpha" maskUnits="userSpaceOnUse" x="0" y="0" width="25" height="21"><path d="M0 .979h24.35v20H0v-20Z" fill="#fff"/></mask><g mask="url(#a)"><path fill-rule="evenodd" clip-rule="evenodd" d="M0 .979v20h24.35v-20H0Z" fill="#FFB400"/><mask id="b" style="mask-type:alpha" maskUnits="userSpaceOnUse" x="0" y="0" width="25" height="21"><path fill-rule="evenodd" clip-rule="evenodd" d="M0 .979v20h24.35v-20H0Z" fill="#fff"/></mask><g mask="url(#b)"><path fill-rule="evenodd" clip-rule="evenodd" d="M0 .979v5h24.35v-5H0ZM0 15.979v5h24.35v-5H0Z" fill="#C51918"/><path d="M3.81 9.539h.852v4.853H3.81V9.539Z" fill="#F1F9FF"/><path fill-rule="evenodd" clip-rule="evenodd" d="M5.003 8.698H3.47v.467h.256v.373h1.023v-.373h.255v-.467ZM4.748 14.672h.255v.466H3.47v-.466h.256v-.374h1.023v.374Z" fill="#C88A02"/><path fill-rule="evenodd" clip-rule="evenodd" d="M4.239 8.792c.185 0 .204-.077.313-.19.085-.09.283-.2.283-.324 0-.283-.267-.513-.596-.513-.33 0-.597.23-.597.513 0 .139.136.23.24.323.108.097.188.19.357.19Z" fill="#AD1619"/><path fill-rule="evenodd" clip-rule="evenodd" d="M3.47 15.139h1.533v.746s-.192-.093-.383-.093c-.192 0-.384.093-.384.093s-.192-.093-.383-.093c-.192 0-.384.093-.384.093v-.746Z" fill="#005BBF"/><mask id="c" style="mask-type:alpha" maskUnits="userSpaceOnUse" x="3" y="15" width="3" height="1"><path fill-rule="evenodd" clip-rule="evenodd" d="M3.472 15.138h1.534v.747s-.192-.094-.384-.094-.383.094-.383.094-.192-.094-.384-.094-.383.094-.383.094v-.747Z" fill="#fff"/></mask><g mask="url(#c)" fill="#fff"><path d="m3.459 15.738-.034-.09a.942.942 0 0 1 .416-.1c.09 0 .137.013.216.052.07.034.107.045.183.045.077 0 .113-.011.183-.045a.418.418 0 0 1 .216-.053c.139 0 .278.034.416.101l-.034.09a.866.866 0 0 0-.382-.093.347.347 0 0 0-.183.044.42.42 0 0 1-.216.053.42.42 0 0 1-.216-.053.347.347 0 0 0-.183-.044.866.866 0 0 0-.382.093ZM3.459 15.458l-.034-.09a.942.942 0 0 1 .416-.1.42.42 0 0 1 .216.052c.07.034.107.045.183.045.077 0 .113-.01.183-.045a.42.42 0 0 1 .216-.052c.139 0 .278.033.416.1l-.034.09a.864.864 0 0 0-.382-.093.347.347 0 0 0-.183.044.42.42 0 0 1-.216.053.42.42 0 0 1-.216-.053.347.347 0 0 0-.183-.044.864.864 0 0 0-.382.093Z"/></g><path d="M12.167 9.539h.852v4.853h-.852V9.539Z" fill="#F1F9FF"/><path fill-rule="evenodd" clip-rule="evenodd" d="M13.351 8.698h-1.534v.467h.256v.373h1.023v-.373h.255v-.467ZM13.096 14.672h.255v.466h-1.534v-.466h.256v-.374h1.023v.374Z" fill="#C88A02"/><path fill-rule="evenodd" clip-rule="evenodd" d="M12.589 8.792c.185 0 .204-.077.313-.19.086-.09.283-.2.283-.324 0-.283-.267-.513-.596-.513-.33 0-.597.23-.597.513 0 .139.136.23.24.323.108.097.188.19.357.19Z" fill="#AD1619"/><path fill-rule="evenodd" clip-rule="evenodd" d="M11.817 15.139h1.534v.746s-.191-.093-.383-.093-.384.093-.384.093-.191-.093-.383-.093-.384.093-.384.093v-.746Z" fill="#005BBF"/><mask id="d" style="mask-type:alpha" maskUnits="userSpaceOnUse" x="11" y="15" width="3" height="1"><path fill-rule="evenodd" clip-rule="evenodd" d="M11.828 15.138h1.534v.747s-.192-.094-.384-.094-.383.094-.383.094-.192-.094-.384-.094-.383.094-.383.094v-.747Z" fill="#fff"/></mask><g mask="url(#d)" fill="#fff"><path d="m11.808 15.738-.034-.09a.942.942 0 0 1 .416-.1c.09 0 .136.013.216.052.07.034.106.045.183.045.076 0 .113-.011.183-.045a.418.418 0 0 1 .216-.053c.139 0 .277.034.415.101l-.033.09a.866.866 0 0 0-.382-.093.347.347 0 0 0-.183.044.419.419 0 0 1-.216.053.42.42 0 0 1-.216-.053.347.347 0 0 0-.183-.044.865.865 0 0 0-.382.093ZM11.808 15.458l-.034-.09a.942.942 0 0 1 .416-.1.42.42 0 0 1 .216.052c.07.034.106.045.183.045.076 0 .113-.01.183-.045a.42.42 0 0 1 .216-.052c.139 0 .277.033.415.1l-.033.09a.865.865 0 0 0-.382-.093.347.347 0 0 0-.183.044.419.419 0 0 1-.216.053.42.42 0 0 1-.216-.053.346.346 0 0 0-.183-.044.864.864 0 0 0-.382.093Z"/></g><path fill-rule="evenodd" clip-rule="evenodd" d="M3.798 14.045c.154-.204.24-.39.24-.587a.562.562 0 0 0-.093-.32l.01-.004c-.001 0 .168-.08.227-.111a1.85 1.85 0 0 0 .3-.194c.061-.048.142-.1.265-.173l.115-.067.031-.018.146-.088a.94.94 0 0 0 .279-.24.472.472 0 0 0-.094-.665c-.106-.079-.249-.124-.458-.16l-.043-.007a174.557 174.557 0 0 1-.526-.092c.524-.095 1.272-.06 1.602.126l.312-.664c-.67-.379-2.198-.34-2.77.09-.418.316-.362.794.074 1 .182.085.42.142.858.22a2.17 2.17 0 0 0-.191.134c-.058.046-.12.085-.194.124-.036.019-.142.07-.191.093l-.024.012c-.355.177-.527.421-.476.863l.028.238.05.017.523.473Zm-.438-.617-.002.003.001-.002v-.001Zm9.355.03c0 .197.086.383.24.587l.523-.473.05-.017.028-.238c.051-.442-.12-.686-.476-.863l-.024-.012a10.08 10.08 0 0 1-.19-.093 1.2 1.2 0 0 1-.195-.124 2.177 2.177 0 0 0-.191-.135c.439-.077.676-.134.858-.22.436-.205.492-.683.073-.998-.57-.43-2.099-.47-2.77-.09l.313.663c.33-.186 1.077-.221 1.601-.126a14.76 14.76 0 0 1-.525.092l-.043.008c-.21.035-.352.08-.458.16a.472.472 0 0 0-.094.664c.065.09.15.159.28.24.04.026.085.053.145.088l.03.018.116.067c.123.073.204.125.264.173.094.075.19.136.3.194l.228.11.01.006a.563.563 0 0 0-.093.32Z" fill="#AD1619"/><path d="m4.506 11.312.252.056v.411c-.268.234-.948.629-.948.629v-1.096h.696ZM12.419 11.312l-.252.056v.411c.268.234.948.629.948.629v-1.096h-.696Z" fill="#F1F9FF"/><path fill-rule="evenodd" clip-rule="evenodd" d="M11.246 6.983v-.137c-.438-.344-.897-.517-1.377-.517a2.54 2.54 0 0 0-1.397-.26v-.002c-.708-.075-1.422.262-1.422.262-.72 0-1.377.517-1.377.517v.137l.86.945s.241.91 1.936.696v.003s1.122-.034 1.2-.063l.098-.032c.22-.07.47-.15.62-.604l.86-.945ZM8.47 6.112c-.025.314-.164 2.212 0 2.506V6.112Z" fill="#AD1619"/><path fill-rule="evenodd" clip-rule="evenodd" d="M6.333 7.77v-.003l-.604-.623.058-.068.568.584.014-.073c.093.022.16.03.2.026v-.127l.126.075c.062.036.15.046.267.025.086-.015.144-.124.163-.356l.038-.47.128.45c.058.204.146.293.272.293.123 0 .173-.05.178-.174l.015-.352.146.315c.053.113.125.165.228.165.147 0 .246-.135.246-.345H8.549c0 .21.098.345.245.345.103 0 .176-.052.228-.165l.146-.315.015.352c.006.125.055.174.178.174.126 0 .214-.09.272-.293l.128-.45.039.47c.018.232.076.341.162.356.117.021.205.011.267-.025l.126-.075v.127a.663.663 0 0 0 .2-.026l.027.136.628-.647.059.068-.782.805c-.114.23-.171.382-.171.445 0 .096-.23.153-.675.212-.35.046-.762.077-1.1.081v.001H8.456c-.337-.005-.75-.036-1.1-.082-.446-.059-.674-.116-.674-.212a.214.214 0 0 0-.006-.045.774.774 0 0 1-.098-.258 4.896 4.896 0 0 0-.068-.142l-.173-.178-.004-.001Zm4.19.015c-.14.027-.241.024-.295-.024a.612.612 0 0 1-.293.01c-.12-.022-.203-.109-.254-.254a.387.387 0 0 1-.247.166c.546.085.928.204.928.204s-.01.089-.033.193c.024-.055.053-.115.086-.182l.009-.012.098-.101Zm-1.346-.137a.284.284 0 0 1-.113-.112.373.373 0 0 1-.138.086c.086.007.17.016.25.026Zm-.552-.044a.404.404 0 0 1-.163-.156.404.404 0 0 1-.161.155l.117-.002h.069l.138.003Zm-2.057.276-.08-.082c.095.01.166 0 .208-.037.083.027.182.03.294.01.12-.022.203-.109.253-.254a.388.388 0 0 0 .239.165c-.47.072-.822.17-.914.198Zm1.427-.259a6.943 6.943 0 0 0-.242.024.285.285 0 0 0 .107-.109c.04.039.085.067.135.085Zm2.096.775c.06.03.108 0 .146-.059a.337.337 0 0 0-.006.044.77.77 0 0 1-.15.053c-.11.028-.265.055-.45.08-.361.047-.79.078-1.132.08a9.874 9.874 0 0 1-1.132-.08 4.296 4.296 0 0 1-.45-.08.896.896 0 0 1-.113-.034.127.127 0 0 0 .01-.004C7 8.3 8.23 8.21 8.451 8.196c.222.015 1.453.104 1.64.2Zm.235-.017v.001-.001Z" fill="#C88A02"/><path fill-rule="evenodd" clip-rule="evenodd" d="M8.456 5.435c.142 0 .256-.126.256-.28 0-.155-.114-.28-.256-.28-.14 0-.255.125-.255.28 0 .154.114.28.255.28Z" fill="#005BBF"/><path fill-rule="evenodd" clip-rule="evenodd" d="M8.288 6.81c.005.03.014.058.025.084a.298.298 0 0 0-.114-.022c-.118 0-.214.063-.214.14 0 .077.096.14.214.14.117 0 .213-.063.213-.14 0 .077.095.14.213.14.117 0 .213-.063.213-.14 0-.077-.096-.14-.213-.14a.31.31 0 0 0-.084.011.387.387 0 0 0-.002-.127c-.022-.127-.097-.217-.166-.203-.07.015-.107.13-.085.256Zm.124.202v-.004.004Zm-1.378-.025a.397.397 0 0 1-.024-.085c-.023-.126.015-.24.084-.255.07-.015.144.075.167.202.008.045.008.09.002.128a.31.31 0 0 1 .083-.012c.118 0 .213.063.213.14 0 .078-.095.14-.213.14-.117 0-.213-.062-.213-.14v-.004.004c0 .078-.095.14-.213.14s-.213-.062-.213-.14c0-.077.095-.14.213-.14.042 0 .081.008.114.022Zm2.67.086c-.01.076-.113.124-.23.106-.116-.018-.202-.095-.192-.171.01-.077.112-.124.228-.107.042.007.08.02.11.04a.398.398 0 0 1-.013-.088c-.006-.129.046-.237.117-.24.07-.005.132.096.138.225a.386.386 0 0 1-.014.127.31.31 0 0 1 .084.001c.117.018.204.095.194.172-.01.076-.113.124-.23.106-.116-.018-.202-.095-.192-.171Zm0 0v-.005.005Zm.811.37c.104.06.215.054.248-.014l.002-.004c.01.012.022.02.036.025.068.023.15-.059.185-.182.034-.123.007-.242-.06-.264-.068-.023-.15.059-.185.182a.4.4 0 0 0-.014.088.33.33 0 0 0-.092-.078c-.104-.06-.215-.055-.248.014-.033.068.024.172.128.233Zm-4.182.028c-.104.06-.215.055-.248-.014a.077.077 0 0 1-.002-.004.083.083 0 0 1-.036.026c-.067.022-.15-.06-.184-.183-.035-.123-.008-.241.06-.264.067-.022.15.06.184.183.009.03.013.06.015.087a.329.329 0 0 1 .091-.078c.104-.06.215-.054.248.014.034.068-.024.173-.128.233ZM8.36 4.375h.177v.123h.116v.195h-.116v.389h.116v.194h-.411v-.194h.118v-.39h-.118v-.194h.118v-.123Z" fill="#C88A02"/><path d="M8.33 5.432h.34v1.213h-.34V5.432Z" fill="#C88A02"/><path d="m6.952 5.635-.001.093c-.756-.014-1.19.107-1.3.347-.113.25-.092.552.068.911l-.077.04c-.17-.383-.193-.715-.067-.992.131-.286.59-.414 1.377-.399Z" fill="#fff"/><path d="m7.106 6.462-.044.08c-.164-.107-.247-.29-.247-.544 0-.363.172-.577.55-.723.242-.093.572-.055.99.112l-.028.088c-.403-.16-.714-.196-.934-.112-.347.134-.492.316-.492.635 0 .222.068.375.205.464Z" fill="#fff"/><path d="m5.826 6.843-.16.062c-.168-.52-.12-.874.165-1.026.251-.135.618-.19 1.1-.168l-.006.187c-.458-.02-.798.03-1.02.148-.186.1-.22.355-.079.797Z" fill="#C88A02"/><path d="M7.707 5.51c-.39 0-.55.105-.641.412-.058.195-.002.362.181.518l-.104.147c-.238-.201-.321-.448-.24-.723.117-.391.346-.54.804-.54.3 0 .534.087.697.262l.025.028v.9h-.17v-.82c-.127-.121-.31-.183-.552-.183Z" fill="#C88A02"/><path d="m9.931 5.728.002.094c.755-.015 1.189.106 1.299.347.114.248.093.551-.067.91l.077.041c.17-.383.193-.715.066-.993-.13-.286-.59-.414-1.377-.399Z" fill="#fff"/><path d="m9.667 6.482.043.08c.165-.107.247-.291.247-.544 0-.364-.17-.577-.55-.723-.24-.093-.57-.055-.99.111l.03.088c.402-.16.713-.196.932-.111.348.134.493.315.493.635 0 .222-.068.374-.205.464Z" fill="#fff"/><path d="m11.111 6.937.16.061c.168-.52.12-.873-.165-1.026-.251-.134-.617-.189-1.1-.167l.006.186c.458-.02.798.03 1.02.15.187.1.22.353.079.796ZM9.22 5.525c.39 0 .55.104.64.41.059.196.002.363-.18.52l.104.147c.237-.202.32-.45.239-.724-.117-.391-.345-.54-.804-.54-.3 0-.534.087-.697.263l-.025.027v.9h.17v-.82c.128-.121.31-.183.552-.183Z" fill="#C88A02"/><path opacity=".3" fill-rule="evenodd" clip-rule="evenodd" d="M5.685 8.698h5.54v5.45s-.412 1.83-2.77 1.83c-2.359 0-2.77-1.877-2.77-1.877V8.698Z" fill="#E1E5E8"/><mask id="e" style="mask-type:alpha" maskUnits="userSpaceOnUse" x="5" y="8" width="7" height="8"><path fill-rule="evenodd" clip-rule="evenodd" d="M5.693 8.698h5.54v5.45s-.412 1.83-2.77 1.83-2.77-1.877-2.77-1.877V8.698Z" fill="#fff"/></mask><g mask="url(#e)"><path d="M5.693 12.059h2.813v3.64H5.693v-3.64Z" fill="#FFC034"/><path d="M6.03 12.245h.341V15.7h-.34v-3.454ZM7.23 12.245h.341V15.7h-.34v-3.454ZM6.631 12.245h.341V15.7h-.34v-3.454ZM7.822 12.245h.34V15.7h-.34v-3.454ZM5.694 8.605h2.812v3.547H5.694V8.605Z" fill="#AD1619"/><path d="M8.419 11.965h2.812v3.547H8.42v-3.547Z" fill="#AD1619"/><path d="M8.418 8.699h2.983v3.453H8.418V8.7Z" fill="#F1F9FF"/><path fill-rule="evenodd" clip-rule="evenodd" d="M6.887 8.979h.255v.774h.17v-.387h.257v.387h.255v.484H7.57v.87h.255v.485H6.29v-.484h.256v-.871H6.29v-.484h.17v-.387h.256v.387h.17v-.774Z" fill="#C88A02"/><path d="m9.888 9.14.174-.204.367.375-.175.204-.366-.374Z" fill="#C88A02"/><path fill-rule="evenodd" clip-rule="evenodd" d="M10.93 14.429v-2.044H8.8v2.027l.003.015c.108.504.475.758 1.062.758.586 0 .953-.248 1.062-.74l.003-.016Zm-1.065.476c-.47 0-.728-.173-.81-.526v-1.714h1.62v1.73c-.082.341-.34.51-.81.51Z" fill="#FFC034"/><path fill-rule="evenodd" clip-rule="evenodd" d="M9.959 12.556H9.78v.927l-.7-.834-.125.126.633.754h-.574v.28h.588l-.647.77.125.127.7-.834v1.083h.178v-.985l.618.736.125-.126-.647-.77h.723v-.28h-.709l.633-.755-.125-.126-.618.736v-.829Z" fill="#FFC034"/><path fill-rule="evenodd" clip-rule="evenodd" d="M10.27 15.514s-1.806.155-1.806-1.12c0 0-.017 1.12-1.902 1.12v1.007h3.707v-1.007Z" fill="#F1F9FF"/><path fill-rule="evenodd" clip-rule="evenodd" d="M8.46 12.805c.353 0 .64-.335.64-.747s-.287-.746-.64-.746c-.353 0-.639.334-.639.746s.286.747.64.747Z" fill="#005BBF" stroke="#AD1619" stroke-width="3.018"/></g></g></g></svg>