<svg width="24" height="25" viewBox="0 0 24 25" fill="none" xmlns="http://www.w3.org/2000/svg"><path opacity=".1" fill-rule="evenodd" clip-rule="evenodd" d="M0 12.979c0-6.628 5.373-12 12-12s12 5.372 12 12c0 6.627-5.373 12-12 12s-12-5.373-12-12Z" fill="#fff"/><path fill-rule="evenodd" clip-rule="evenodd" d="m11.64 10.732.026.416-.42-.051c-1.528-.195-2.862-.856-3.995-1.966l-.554-.55-.143.406c-.302.907-.11 1.864.52 2.508.336.356.26.407-.319.195-.201-.068-.377-.119-.394-.093-.059.06.143.83.302 1.135.218.424.663.84 1.15 1.085l.411.195-.486.008c-.47 0-.487.009-.437.187.168.55.831 1.135 1.57 1.39l.52.178-.453.27c-.672.39-1.46.61-2.25.628-.377.008-.688.042-.688.068 0 .084 1.024.559 1.62.745 1.788.551 3.911.314 5.506-.627 1.133-.67 2.267-2 2.795-3.288.286-.686.571-1.94.571-2.542 0-.39.025-.44.495-.907.277-.27.538-.567.588-.652.084-.161.076-.161-.353-.017-.713.254-.814.22-.461-.161.26-.271.57-.763.57-.907 0-.025-.125.017-.268.093a4.685 4.685 0 0 1-.739.288l-.453.145-.411-.28c-.227-.153-.546-.322-.714-.373-.428-.119-1.082-.102-1.469.034-1.049.381-1.712 1.364-1.636 2.44Z" fill="#fff"/></svg>