<svg width="25" height="21" viewBox="0 0 25 21" fill="none" xmlns="http://www.w3.org/2000/svg"><mask id="a" style="mask-type:alpha" maskUnits="userSpaceOnUse" x="0" y="0" width="25" height="21"><path d="M.204.979h24.351v20H.205v-20Z" fill="#fff"/></mask><g mask="url(#a)"><path fill-rule="evenodd" clip-rule="evenodd" d="M.204.979h24.351v20H.205v-20Z" fill="#F7FCFF"/><path fill-rule="evenodd" clip-rule="evenodd" d="M.204 13.2v1.667h24.351v-1.666H.205ZM.204 16.256v1.667h24.351v-1.667H.205ZM.204 7.09v1.666h24.351V7.089H.205ZM.204 19.312v1.667h24.351v-1.667H.205ZM.204 10.145v1.667h24.351v-1.667H.205ZM.204.979v1.666h24.351V.98H.205ZM.204 4.034v1.667h24.351V4.034H.205Z" fill="#E31D1C"/><path d="M.204.979h15.22v10.833H.204V.979Z" fill="#2E42A5"/><path fill-rule="evenodd" clip-rule="evenodd" d="m1.51 3.428-.551.424.186-.755-.49-.478h.64l.215-.616.252.616h.546l-.429.478.166.755-.534-.424Zm3.045 0-.553.424.187-.755-.49-.478h.64l.215-.616.252.616h.546l-.429.478.166.755-.534-.424Zm2.491.424.553-.424.534.424-.166-.755.43-.478H7.85l-.252-.616-.215.616h-.64l.49.478-.187.755Zm3.596-.424-.552.424.187-.755-.491-.478h.64l.216-.616.252.616h.546l-.43.478.167.755-.534-.424ZM.96 7.185l.552-.424.534.424-.166-.755.43-.478h-.547l-.252-.616-.215.616h-.64l.49.478-.186.755Zm3.596-.424-.553.424.187-.755-.49-.478h.64l.215-.616.252.616h.546l-.429.478.166.755-.534-.424Zm2.491.424.553-.424.534.424-.166-.755.43-.478H7.85l-.252-.616-.215.616h-.64l.49.478-.187.755Zm3.596-.424-.552.424.187-.755-.491-.478h.64l.216-.616.252.616h.546l-.43.478.167.755-.534-.424ZM.96 10.518l.552-.424.534.424-.166-.754.43-.479h-.547L1.51 8.67l-.215.615h-.64l.49.479-.186.754Zm3.596-.424-.553.424.187-.754-.49-.479h.64l.215-.615.252.615h.546l-.429.479.166.754-.534-.424Zm2.491.424.553-.424.534.424-.166-.754.43-.479H7.85l-.252-.615-.215.615h-.64l.49.479-.187.754Zm3.596-.424-.552.424.187-.754-.491-.479h.64l.216-.615.252.615h.546l-.43.479.167.754-.534-.424Zm2.492-6.242.552-.424.535.424-.166-.755.429-.478h-.546l-.252-.616-.215.616h-.641l.49.478-.186.755Zm.552 2.909-.552.424.186-.755-.49-.478h.64l.216-.616.252.616h.546l-.43.478.167.755-.535-.424Zm-.552 3.757.552-.424.535.424-.166-.754.429-.479h-.546l-.252-.615-.215.615h-.641l.49.479-.186.754ZM3.033 5.094l-.553.424.187-.754-.49-.479h.64l.215-.615.252.615h.546l-.429.479.166.754-.534-.424Zm2.491.424.553-.424.534.424-.166-.754.43-.479h-.547l-.252-.615-.215.615h-.64l.49.479-.187.754Zm3.597-.424-.553.424.187-.754-.491-.479h.64l.216-.615.252.615h.546l-.43.479.167.754-.534-.424ZM2.48 8.852l.552-.424.534.424-.166-.755.43-.478h-.547l-.252-.616-.215.616h-.64l.49.478-.187.755Zm3.596-.424-.553.424.187-.755-.49-.478h.64l.215-.616.252.616h.546l-.429.478.166.755-.534-.424Zm2.491.424.553-.424.534.424-.166-.755.43-.478h-.547l-.252-.616-.215.616h-.641l.49.478-.186.755Zm3.596-3.758-.552.424.187-.754-.491-.479h.64l.216-.615.252.615h.546l-.43.479.167.754-.535-.424Zm-.552 3.758.552-.424.535.424-.166-.755.429-.478h-.546l-.252-.616-.215.616h-.641l.49.478-.186.755Z" fill="#F7FCFF"/></g></svg>