<svg width="32" height="33" viewBox="0 0 32 33" fill="none" xmlns="http://www.w3.org/2000/svg"><mask id="a" style="mask-type:alpha" maskUnits="userSpaceOnUse" x="0" y="0" width="32" height="33"><path fill="#D9D9D9" d="M0 .979h32v32H0z"/></mask><g mask="url(#a)"><path d="M16 30.312c-1.822 0-3.544-.35-5.167-1.051a13.501 13.501 0 0 1-4.249-2.867 13.502 13.502 0 0 1-2.867-4.249 12.894 12.894 0 0 1-1.05-5.167c0-1.844.35-3.572 1.05-5.182a13.552 13.552 0 0 1 2.867-4.234 13.52 13.52 0 0 1 4.25-2.868c1.622-.7 3.344-1.049 5.166-1.049 1.844 0 3.572.35 5.183 1.05 1.611.7 3.022 1.656 4.233 2.867a13.551 13.551 0 0 1 2.867 4.234c.7 1.61 1.05 3.338 1.05 5.182 0 1.823-.35 3.545-1.05 5.167a13.502 13.502 0 0 1-2.867 4.25 13.552 13.552 0 0 1-4.233 2.866c-1.611.7-3.339 1.05-5.183 1.05Zm0-2.734c.578-.8 1.078-1.633 1.5-2.5.422-.866.767-1.788 1.033-2.766h-5.066c.266.977.61 1.9 1.033 2.766.422.867.922 1.7 1.5 2.5Zm-3.467-.533c-.4-.733-.75-1.495-1.049-2.284-.3-.788-.55-1.605-.75-2.45H6.8a11.07 11.07 0 0 0 2.416 2.9 9.601 9.601 0 0 0 3.317 1.834Zm6.934 0a9.587 9.587 0 0 0 3.316-1.833 11.06 11.06 0 0 0 2.417-2.9h-3.933c-.2.844-.45 1.66-.75 2.449-.3.79-.65 1.55-1.05 2.284Zm-13.8-7.4H10.2a18.618 18.618 0 0 1-.15-1.317c-.034-.433-.05-.883-.05-1.35 0-.466.016-.916.05-1.349.033-.434.083-.873.15-1.317H5.667a10.682 10.682 0 0 0-.333 2.667 10.682 10.682 0 0 0 .333 2.666Zm7.2 0h6.266c.067-.444.117-.883.151-1.317.033-.433.05-.883.05-1.35 0-.466-.017-.916-.05-1.349a18.618 18.618 0 0 0-.15-1.317h-6.267a18.147 18.147 0 0 0-.2 2.666 17.344 17.344 0 0 0 .2 2.667Zm8.933 0h4.533a10.684 10.684 0 0 0 .333-2.667 10.684 10.684 0 0 0-.333-2.666H21.8a18.147 18.147 0 0 1 .2 2.666 17.344 17.344 0 0 1-.2 2.667Zm-.533-8H25.2a11.06 11.06 0 0 0-2.417-2.9 9.586 9.586 0 0 0-3.316-1.833c.4.733.75 1.494 1.05 2.282.3.79.55 1.607.75 2.451Zm-7.8 0h5.066c-.266-.978-.61-1.9-1.033-2.767-.422-.866-.922-1.7-1.5-2.5-.578.8-1.078 1.634-1.5 2.5a15.778 15.778 0 0 0-1.033 2.767Zm-6.667 0h3.933c.2-.844.45-1.661.751-2.45.3-.79.65-1.55 1.05-2.283a9.6 9.6 0 0 0-3.318 1.833 11.07 11.07 0 0 0-2.416 2.9Z" fill="#E94581"/></g></svg>