<svg width="48" height="16" viewBox="0 0 48 16" fill="none" xmlns="http://www.w3.org/2000/svg"><g clip-path="url(#a)" fill="#000"><path d="M20.427 8.205c0 2.22-1.763 3.857-3.926 3.857-2.164 0-3.927-1.636-3.927-3.857 0-2.236 1.763-3.857 3.927-3.857 2.163 0 3.926 1.62 3.926 3.857Zm-1.719 0c0-1.388-1.021-2.337-2.207-2.337s-2.208.95-2.208 2.337c0 1.374 1.022 2.337 2.208 2.337 1.186 0 2.207-.965 2.207-2.337ZM28.898 8.205c0 2.22-1.763 3.857-3.927 3.857-2.163 0-3.926-1.636-3.926-3.857 0-2.235 1.763-3.857 3.926-3.857 2.164 0 3.927 1.62 3.927 3.857Zm-1.719 0c0-1.388-1.022-2.337-2.208-2.337-1.186 0-2.207.95-2.207 2.337 0 1.374 1.021 2.337 2.207 2.337s2.208-.965 2.208-2.337ZM37.015 4.58v6.926c0 2.849-1.705 4.012-3.72 4.012-1.897 0-3.039-1.25-3.47-2.273l1.497-.614c.267.628.92 1.369 1.972 1.369 1.29 0 2.089-.784 2.089-2.261v-.555h-.06c-.385.468-1.126.877-2.061.877-1.957 0-3.75-1.68-3.75-3.842 0-2.177 1.793-3.871 3.75-3.871.933 0 1.674.408 2.06.862h.06v-.628h1.633v-.001Zm-1.51 3.639c0-1.358-.92-2.351-2.09-2.351-1.186 0-2.18.993-2.18 2.351 0 1.344.994 2.323 2.18 2.323 1.17 0 2.09-.979 2.09-2.323ZM39.706.521v11.305h-1.677V.52h1.677ZM46.239 9.474l1.334.877c-.43.628-1.468 1.71-3.261 1.71-2.224 0-3.884-1.694-3.884-3.858 0-2.294 1.674-3.857 3.692-3.857 2.03 0 3.024 1.593 3.349 2.454l.178.438-5.232 2.136c.4.773 1.023 1.168 1.897 1.168.875 0 1.482-.424 1.927-1.068Zm-4.107-1.387 3.498-1.432c-.192-.481-.771-.817-1.452-.817-.874 0-2.09.76-2.046 2.249ZM6.229 7.202V5.566h5.596c.054.285.082.622.082.987 0 1.228-.34 2.746-1.438 3.828-1.067 1.096-2.432 1.68-4.239 1.68-3.35 0-6.166-2.689-6.166-5.99 0-3.3 2.817-5.989 6.166-5.989 1.853 0 3.173.717 4.165 1.65L9.223 2.887A4.266 4.266 0 0 0 6.23 1.72a4.328 4.328 0 0 0-4.36 4.353 4.327 4.327 0 0 0 4.36 4.353c1.586 0 2.49-.628 3.068-1.199.47-.462.779-1.123.9-2.026l-3.968.002Z"/></g><defs><clipPath id="a"><path fill="#fff" d="M0 0h48v16H0z"/></clipPath></defs></svg>