<svg width="79" height="16" viewBox="0 0 79 16" fill="none" xmlns="http://www.w3.org/2000/svg"><g clip-path="url(#a)" fill="#000"><path d="m27.886 9.216-.47 1.265h-.04a8.665 8.665 0 0 0-.458-1.24l-2.524-6.016h-2.472v9.588h1.635V6.896c0-.372 0-.794-.013-1.314-.013-.26-.04-.46-.053-.608h.04c.078.372.17.645.235.818l3.035 6.996h1.15L30.96 5.73c.065-.16.13-.483.196-.756h.04c-.04.707-.066 1.34-.08 1.724v6.077h1.74V3.2h-2.38l-2.59 6.016Zm6.618-3.312h1.7v6.871h-1.7V5.904Zm.864-2.902c-.288 0-.524.099-.72.273a.86.86 0 0 0-.3.67c0 .26.104.483.3.657.196.173.432.26.72.26.287 0 .536-.1.719-.26a.852.852 0 0 0 .3-.658.897.897 0 0 0-.3-.67c-.17-.173-.419-.272-.72-.272Zm6.866 2.84c-.314-.062-.64-.1-.955-.1-.771 0-1.478.162-2.066.484-.589.323-1.06.77-1.36 1.328-.314.57-.471 1.228-.471 1.984 0 .657.157 1.24.458 1.774.3.52.719.942 1.281 1.228.537.285 1.164.434 1.87.434.812 0 1.505-.162 2.054-.46l.013-.011v-1.489l-.065.05a2.982 2.982 0 0 1-.824.409c-.3.1-.576.149-.811.149-.68 0-1.216-.186-1.596-.595-.392-.397-.588-.943-.588-1.625 0-.707.196-1.265.601-1.675.406-.409.942-.62 1.596-.62.55 0 1.112.174 1.622.521l.065.05V6.102l-.013-.012c-.222-.087-.47-.186-.81-.248Zm5.611-.05c-.418 0-.81.124-1.15.385-.288.223-.485.546-.655.93h-.013V5.904h-1.7v6.871h1.7v-3.51c0-.595.131-1.091.419-1.45.288-.373.654-.559 1.099-.559.157 0 .313.037.51.062.183.05.314.1.405.161l.066.05V5.916l-.04-.012c-.117-.074-.353-.112-.64-.112Zm4.63-.037c-1.19 0-2.145.335-2.812.992-.68.658-1.007 1.563-1.007 2.704 0 1.067.34 1.935.994 2.568.654.62 1.544.942 2.656.942 1.164 0 2.092-.335 2.76-1.004.68-.67 1.006-1.563 1.006-2.667 0-1.091-.314-1.96-.954-2.592-.615-.633-1.518-.943-2.643-.943Zm1.36 5.284c-.313.384-.81.57-1.425.57s-1.112-.186-1.465-.595c-.353-.384-.523-.942-.523-1.65 0-.731.183-1.29.523-1.686.353-.397.837-.596 1.452-.596.602 0 1.073.186 1.413.57.34.385.523.943.523 1.675-.026.745-.17 1.327-.497 1.712Zm6.03-2.282c-.536-.211-.876-.372-1.033-.509-.13-.124-.196-.297-.196-.52 0-.187.078-.373.275-.497.196-.124.418-.186.745-.186.288 0 .589.05.877.124.287.075.549.186.758.335l.066.05V6.04l-.04-.012a4.914 4.914 0 0 0-.772-.21 5.52 5.52 0 0 0-.837-.075c-.81 0-1.477.186-2 .595-.524.385-.772.906-.772 1.513 0 .323.052.608.17.844.117.235.287.459.523.645a4.63 4.63 0 0 0 1.046.558c.393.161.693.285.877.384.183.1.3.211.392.298.065.1.104.223.104.384 0 .46-.366.683-1.111.683-.288 0-.589-.05-.942-.162a3.72 3.72 0 0 1-.955-.458l-.065-.05v1.575l.04.013c.248.111.548.186.915.272.366.062.693.112.98.112.877 0 1.596-.186 2.106-.595.524-.397.798-.906.798-1.563 0-.46-.13-.868-.418-1.178a5.37 5.37 0 0 0-1.53-.856ZM66.3 5.755c-1.19 0-2.144.335-2.812.992-.667.658-1.007 1.563-1.007 2.704 0 1.067.34 1.935.994 2.568.654.62 1.544.942 2.655.942 1.165 0 2.093-.335 2.76-1.004.68-.67 1.007-1.563 1.007-2.667 0-1.091-.314-1.96-.954-2.592-.615-.633-1.518-.943-2.642-.943Zm1.348 5.284c-.314.384-.811.57-1.426.57-.628 0-1.112-.186-1.465-.595-.353-.384-.523-.942-.523-1.65 0-.731.183-1.29.523-1.686.353-.397.837-.596 1.452-.596.588 0 1.072.186 1.412.57.34.385.524.943.524 1.675 0 .745-.17 1.327-.497 1.712Zm11.34-3.808V5.904h-1.714V3.87l-.052.012-1.622.46-.04.012v1.55h-2.563v-.868c0-.397.105-.707.288-.906.183-.198.458-.297.798-.297.235 0 .484.05.758.16l.066.038V2.63l-.04-.013a3.198 3.198 0 0 0-.954-.124c-.51 0-.955.112-1.36.298-.406.21-.707.496-.93.88-.222.373-.34.794-.34 1.278v.955h-1.19v1.315h1.19v5.556h1.714V7.231h2.564v3.535c0 1.451.72 2.183 2.158 2.183.235 0 .484-.037.72-.074a2.45 2.45 0 0 0 .536-.162l.013-.012v-1.327l-.066.05a1.136 1.136 0 0 1-.353.148c-.13.037-.249.05-.34.05-.34 0-.576-.075-.745-.26-.157-.174-.236-.46-.236-.881V7.23h1.74ZM0 0h8.018v7.603H0V0ZM8.855 0h8.018v7.603H8.855V0ZM0 8.396h8.018V16H0V8.396ZM8.855 8.396h8.018V16H8.855V8.396Z"/></g><defs><clipPath id="a"><path fill="#fff" d="M0 0h79v16H0z"/></clipPath></defs></svg>